<svg xmlns="http://www.w3.org/2000/svg" xmlns:xlink="http://www.w3.org/1999/xlink" viewBox="0 0 686.59 392.75">
  <defs>
    <style>
      .cls-1 {
        fill: none;
      }

      .cls-2 {
        clip-path: url(#clip-path);
      }

      .cls-3 {
        clip-path: url(#clip-path-2);
      }

      .cls-4 {
        fill: #f5b5ee;
      }
    </style>
    <clipPath id="clip-path" transform="translate(0 0)">
      <rect class="cls-1" width="686.59" height="392.75"/>
    </clipPath>
    <clipPath id="clip-path-2" transform="translate(0 0)">
      <rect class="cls-1" width="686.59" height="392.75"/>
    </clipPath>
  </defs>
  <title>jmc-logo</title>
  <g id="Layer_2" data-name="Layer 2">
    <g id="Imagery">
      <g id="Artwork_6" data-name="Artwork 6">
        <g class="cls-2">
          <g class="cls-3">
            <path class="cls-4" d="M125.16,0V263.54q0,44.08-27.86,44.08-12.69,0-21.29-10.13T64.86,270.13L0,336.5q38.51,56.25,99.83,56.25a139.83,139.83,0,0,0,38.76-5.32c2.64-.76,5.2-1.61,7.74-2.49L211.67,0Z" transform="translate(0 0)"/>
            <path class="cls-4" d="M639.16,49.08a31.24,31.24,0,0,1,10.24-6.6A33.38,33.38,0,0,1,662,40.14q12.43,0,24.62,8.3V8.53A69.71,69.71,0,0,0,655,1.27a79.73,79.73,0,0,0-29.16,5.31,70.25,70.25,0,0,0-23.44,14.78,68.63,68.63,0,0,0-14.32,20l13.73,80.85c.43.4.8.85,1.23,1.25a70.06,70.06,0,0,0,23.06,14.12,77.83,77.83,0,0,0,27.61,4.92q15.54,0,32.91-7.51V95.09q-11.4,9.07-24.62,9.07a34.64,34.64,0,0,1-12.7-2.33A29.68,29.68,0,0,1,639,95.22a31.48,31.48,0,0,1-6.74-10.11,32.66,32.66,0,0,1-2.46-12.82,33.43,33.43,0,0,1,2.46-13.1,30.52,30.52,0,0,1,6.87-10.11" transform="translate(0 0)"/>
            <polygon class="cls-4" points="472.56 0 395.67 206.05 318.27 0 218.83 0 153.53 384.66 253.44 384.66 286.49 164.02 372.41 384.66 413.84 384.66 504.33 164.02 537.38 384.66 637.29 384.66 571.99 0 472.56 0"/>
          </g>
        </g>
      </g>
    </g>
  </g>
</svg>
